<svg xmlns="http://www.w3.org/2000/svg" xmlns:xlink="http://www.w3.org/1999/xlink" version="1.1" id="Layer_1" x="0px" y="0px" viewBox="0 0 24 24" style="enable-background:new 0 0 24 24;" xml:space="preserve">
<style type="text/css">
	.st0{fill:#333333;}
</style>
<g id="Page-1">
	<g id="Atoms_x2F_Icons_x2F_Check_x2F_Circle">
		<g id="Group" transform="translate(1.000000, 0.000000)">
			<path id="check-circle" class="st0" d="M15.5,1.9C16,2.2,16.2,2.8,16,3.3c-0.2,0.5-0.8,0.7-1.3,0.5C11,2.2,6.7,3.1,4.2,6.1     s-2.9,7.4-0.7,10.7s6.3,4.9,10.1,3.7c3.7-1.1,6.3-4.5,6.4-8.4l0-0.3v-0.9c0-0.6,0.4-1,1-1c0.5,0,0.9,0.4,1,0.9l0,0.1V12     c0,4.9-3.2,9.2-7.9,10.5C9.4,23.9,4.4,22.1,1.8,18S-0.5,8.6,2.6,4.8S11,0,15.5,1.9z M21.7,3.3c0.4,0.4,0.4,0.9,0.1,1.3l-0.1,0.1     l-10,10c-0.4,0.4-0.9,0.4-1.3,0.1l-0.1-0.1l-3-3c-0.4-0.4-0.4-1,0-1.4c0.4-0.4,0.9-0.4,1.3-0.1l0.1,0.1l2.3,2.3l9.3-9.3     C20.7,2.9,21.3,2.9,21.7,3.3z"/>
		</g>
	</g>
</g>
</svg>